<?xml version="1.0" standalone="no"?>
<!DOCTYPE svg PUBLIC "-//W3C//DTD SVG 1.1//EN" "http://www.w3.org/Graphics/SVG/1.1/DTD/svg11.dtd">
<svg xmlns="http://www.w3.org/2000/svg">
<defs >
<font id="Krub" horiz-adv-x="570" ><font-face
    font-family="Krub"
    units-per-em="1000"
    panose-1="0 0 8 0 0 0 0 0 0 0"
    ascent="1007"
    descent="-293"
    alphabetic="0" />
<glyph unicode=" " glyph-name="space" horiz-adv-x="258" />
<glyph unicode="!" glyph-name="exclam" horiz-adv-x="246" d="M40 700H206L171 226H75L40 700ZM38 -6T38 72V87Q38 165 116 165H130Q208 165 208 87V72Q208 -6 130 -6H116Q38 -6 38 72Z" />
<glyph unicode="&quot;" glyph-name="quotedbl" horiz-adv-x="324" d="M12 737H143L123 505H32L12 737ZM181 737H312L292 505H201L181 737Z" />
<glyph unicode="#" glyph-name="numbersign" horiz-adv-x="540" d="M433 413L413 285H489V195H398L367 0H274L305 195H195L164 0H71L102 195H25V285H117L137 413H51V503H151L183 700H276L244 503H354L386 700H479L447 503H515V413H433ZM340 413H230L210 285H320L340 413Z" />
<glyph unicode="$" glyph-name="dollar" horiz-adv-x="609" d="M585 158T555 109T470 29T341 -8V-120H279V-10Q166 -5 103 36T39 147Q39 182 68 202T152 223Q157 171 190 139T279 101V296L277 297Q159 330 104 381T49 514Q49 598 110 649T279 709V809H341V709Q428
702 490 657T576 534Q559 517 529 504T476 491Q458 491 448 498T427 527Q411 559 391 576T341 598V417Q439 385 491 358T564 299T585 220Q585 158 555 109ZM205 496T220 477T279 440V598Q205 589 205 529Q205 496 220 477ZM427 115T427 191Q427 219 407 239T341
276V102Q427 115 427 191Z" />
<glyph unicode="%" glyph-name="percent" horiz-adv-x="1010" d="M641 710H783L379 -10H237L641 710ZM153 322T105 372T57 510Q57 599 105 649T237 700Q321 700 369 650T417 510Q417 422 369 372T237 322Q153 322 105 372ZM269 404T284 429T299 511Q299 567 284
592T237 618Q205 618 190 594T175 516Q175 458 190 431T237 404Q269 404 284 429ZM686 -10T638 40T590 178Q590 267 638 317T770 368Q854 368 902 318T950 178Q950 90 902 40T770 -10Q686 -10 638 40ZM802 72T817 97T832 179Q832 235 817 260T770 286Q738 286 723
262T708 184Q708 126 723 99T770 72Q802 72 817 97Z" />
<glyph unicode="&amp;" glyph-name="ampersand" horiz-adv-x="687" d="M583 115T606 111T657 105V58Q657 27 637 9T575 -10Q506 -10 444 30Q366 -10 272 -10Q215 -10 159 11T67 73T30 171Q30 219 45 253T88 312T165 367Q112 465 112 531Q112 586 137 626T203 688T295
710Q369 710 421 670T474 555Q474 511 454 478T401 418T310 354Q381 257 456 194Q488 268 483 378Q609 378 609 270Q609 237 596 200T557 127Q583 115 606 111ZM272 617T253 592T234 533Q234 506 241 481T263 427Q317 461 339 488T361 559Q361 586 346 601T302
617Q272 617 253 592ZM175 140T207 111T295 82Q333 82 366 96Q280 185 214 285Q190 264 183 243T175 187Q175 140 207 111Z" />
<glyph unicode="&apos;" glyph-name="quotesingle" horiz-adv-x="223" d="M46 737H177L157 505H66L46 737Z" />
<glyph unicode="(" glyph-name="parenleft" horiz-adv-x="390" d="M143 -4T107 120T70 380Q70 514 106 637T221 864H325Q275 745 248 630T221 380Q221 245 248 129T325 -106H221Q143 -4 107 120Z" />
<glyph unicode=")" glyph-name="parenright" horiz-adv-x="390" d="M65 -106Q115 13 142 129T169 380Q169 514 142 629T65 864H169Q247 761 283 638T320 380Q320 245 284 121T169 -106H65Z" />
<glyph unicode="*" glyph-name="asterisk" horiz-adv-x="618" d="M134 563L254 691L91 729L124 825L272 750L255 930H364L350 750L495 828L527 734L368 691L484 570L397 506L311 653L222 506L134 563Z" />
<glyph unicode="+" glyph-name="plus" horiz-adv-x="600" d="M258 284H50V364H258V578H342V364H550V284H342V70H258V284Z" />
<glyph unicode="," glyph-name="comma" horiz-adv-x="308" d="M197 165T218 144T239 84V65Q239 19 227 -15T185 -93Q168 -118 153 -130T119 -143Q91 -143 71 -125Q112 -80 128 -58T150 -6H140Q107 -6 88 15T69 70V89Q69 123 89 144T142 165H163Q197 165 218 144Z" />
<glyph unicode="-" glyph-name="hyphen" horiz-adv-x="480" d="M60 347H420V267H60V347Z" />
<glyph unicode="." glyph-name="period" horiz-adv-x="310" d="M70 -6T70 72V87Q70 165 148 165H162Q240 165 240 87V72Q240 -6 162 -6H148Q70 -6 70 72Z" />
<glyph unicode="/" glyph-name="slash" horiz-adv-x="334" d="M260 811H364L74 -55H-30L260 811Z" />
<glyph unicode="0" glyph-name="zero" horiz-adv-x="620" d="M169 -12T100 78T30 338Q30 517 99 613T310 710Q451 710 520 614T590 338Q590 169 521 79T310 -12Q169 -12 100 78ZM385 90T413 154T442 338Q442 469 414 538T310 608Q233 608 206 539T178 338Q178
218 206 154T310 90Q385 90 413 154Z" />
<glyph unicode="1" glyph-name="one" horiz-adv-x="459" d="M422 95V0H38V95H160V532Q118 502 77 502Q46 502 26 519T5 573Q5 593 10 612Q57 617 120 640T220 700H305V95H422Z" />
<glyph unicode="2" glyph-name="two" horiz-adv-x="537" d="M516 378T448 290T233 99H501V0H52V76Q184 184 249 248T343 367T371 489Q371 539 345 570T271 602Q220 602 190 563T154 453Q88 453 61 476T33 549Q33 584 63 619T148 677T271 700Q382 700 449 643T516
479Q516 378 448 290Z" />
<glyph unicode="3" glyph-name="three" horiz-adv-x="549" d="M438 349T476 314T514 199Q514 137 482 90T390 17T249 -9Q140 -9 75 22T9 112Q9 146 35 167T88 188Q117 139 154 115T252 91Q310 91 339 120T369 198Q369 254 344 282T273 310L241 309Q219 307 206
307Q185 307 172 329T158 375Q158 404 175 404H244Q296 404 321 430T347 513Q347 552 325 577T255 602Q207 602 180 574T138 495Q85 495 58 515T30 571Q30 599 57 629T135 679T257 700Q369 700 430 654T492 518Q492 458 461 419T380 360Q438 349 476 314Z" />
<glyph unicode="4" glyph-name="four" horiz-adv-x="522" d="M311 133H20V199Q119 330 172 448T235 700Q255 702 263 702Q320 702 350 675T380 600Q380 543 342 471T249 334T147 232H311V372H455V232H516V133H455V0H311V133Z" />
<glyph unicode="5" glyph-name="five" horiz-adv-x="556" d="M388 473T451 412T514 235Q514 119 447 55T265 -9Q189 -9 140 10T68 60T46 121Q46 156 65 177T124 202Q139 147 170 118T255 89Q369 89 369 231Q369 374 258 374Q218 374 192 355T146 300L47 317L71
700H486V602H194L184 450Q224 473 282 473Q388 473 451 412Z" />
<glyph unicode="6" glyph-name="six" horiz-adv-x="577" d="M406 449T469 393T533 216Q533 110 466 52T289 -7Q210 -7 152 28T62 127T30 278Q30 396 69 493T181 648T346 705Q395 705 415 682T436 609Q339 609 277 559T191 413Q245 449 312 449Q406 449 469 393ZM338
92T363 127T388 226Q388 292 361 321T282 350Q226 350 176 316Q175 303 175 278Q175 185 202 139T291 92Q338 92 363 127Z" />
<glyph unicode="7" glyph-name="seven" horiz-adv-x="482" d="M476 700V626Q371 479 326 352T271 72L267 0H195Q148 0 130 21T113 84L114 99Q119 176 149 267T231 444T350 592H89Q53 592 34 608T15 654Q15 684 22 700H476Z" />
<glyph unicode="8" glyph-name="eight" horiz-adv-x="564" d="M481 330T507 288T533 183Q533 88 468 40T282 -9Q162 -9 97 39T32 183Q32 247 58 288T147 359Q96 390 70 427T43 520Q43 575 72 617T156 682T282 705Q355 705 408 682T491 617T520 520Q520 463 495
425T421 359Q481 330 507 288ZM238 608T213 585T187 523Q187 489 209 459T277 408Q334 429 355 458T376 523Q376 561 351 584T282 608Q238 608 213 585ZM388 89T388 183Q388 207 382 223T351 256T276 297Q220 271 199 244T177 183Q177 89 282 89Q388 89 388 183Z"
/>
<glyph unicode="9" glyph-name="nine" horiz-adv-x="577" d="M404 705T468 637T533 440Q533 320 491 218T369 54T177 -7Q128 -7 108 16T87 89Q198 89 267 139T366 280Q312 249 251 249Q156 249 93 303T30 477Q30 548 63 599T155 678T284 705Q404 705 468 637ZM334
348T385 381Q388 410 388 440Q388 502 379 537T347 589T282 606Q229 606 202 571T175 467Q175 407 203 378T281 348Q334 348 385 381Z" />
<glyph unicode=":" glyph-name="colon" horiz-adv-x="324" d="M70 356T70 434V449Q70 527 148 527H162Q240 527 240 449V434Q240 356 162 356H148Q70 356 70 434ZM70 -6T70 72V87Q70 165 148 165H162Q240 165 240 87V72Q240 -6 162 -6H148Q70 -6 70 72Z" />
<glyph unicode=";" glyph-name="semicolon" horiz-adv-x="324" d="M197 165T218 144T239 84V65Q239 19 227 -15T185 -93Q168 -118 153 -130T119 -143Q91 -143 71 -125Q112 -80 128 -58T150 -6H140Q107 -6 88 15T69 70V89Q69 123 89 144T142 165H163Q197 165 218
144ZM70 356T70 434V449Q70 527 148 527H162Q240 527 240 449V434Q240 356 162 356H148Q70 356 70 434Z" />
<glyph unicode="&lt;" glyph-name="less" horiz-adv-x="600" d="M550 498L167 304L550 108V-7L50 252V356L550 613V498Z" />
<glyph unicode="=" glyph-name="equal" horiz-adv-x="600" d="M70 475H530V393H70V475ZM70 271H530V189H70V271Z" />
<glyph unicode="&gt;" glyph-name="greater" horiz-adv-x="600" d="M550 356V252L50 -7V108L433 304L50 498V613L550 356Z" />
<glyph unicode="?" glyph-name="question" horiz-adv-x="475" d="M155 249Q155 289 168 319T199 371T247 419Q281 450 297 472T314 526Q314 567 295 587T236 607Q193 607 175 582T152 509L23 538Q25 587 51 626T127 687T242 709Q340 709 400 661T461 529Q461 483
448 452T415 403T363 361Q335 341 319 327T292 290T281 235V219H155V249ZM135 -6T135 72V87Q135 165 213 165H227Q305 165 305 87V72Q305 -6 227 -6H213Q135 -6 135 72Z" />
<glyph unicode="@" glyph-name="at" horiz-adv-x="834" d="M566 287Q565 280 563 268T561 247Q561 214 600 214Q651 214 684 262T718 398Q718 474 685 530T587 618T433 649Q342 649 273 612T165 508T126 350Q126 202 208 125T445 48Q515 48 558 61T638 103Q653
97 662 86T671 58Q671 38 640 20T557 -9T445 -20Q260 -20 156 75T52 352Q52 453 102 536T240 668T432 717Q540 717 622 674T748 558T792 396Q792 318 766 261T694 173T595 143Q559 143 532 161T492 207Q474 178 445 161T379 143Q312 143 270 187T228 309Q228 376
252 428T318 509T415 539Q473 539 501 500L505 523H599L566 287ZM440 228T462 267T484 365Q484 409 468 431T424 454Q382 454 358 416T333 318Q333 275 348 252T394 228Q440 228 462 267Z" />
<glyph unicode="A" glyph-name="A" horiz-adv-x="660" d="M480 107T466 173H194Q180 107 165 0H15Q53 363 253 700H408Q607 365 645 0H495Q480 107 466 173ZM442 283Q400 448 330 586Q260 448 218 283H442Z" />
<glyph unicode="B" glyph-name="B" horiz-adv-x="625" d="M525 347T558 304T592 204Q592 107 525 54T336 0H76V700H326Q434 700 497 648T560 506Q560 455 537 417T473 362Q525 347 558 304ZM404 552T376 573T286 594H230V410H283Q346 410 375 433T404 506Q404
552 376 573ZM358 106T385 114T424 144T436 204Q436 259 407 281T304 304H230V106H306Q358 106 385 114Z" />
<glyph unicode="C" glyph-name="C" horiz-adv-x="636" d="M223 -10T138 83T52 349Q52 462 91 543T205 667T382 710Q445 710 503 689T596 631Q591 599 571 571T534 543Q520 543 508 552Q474 578 445 589T380 600Q210 600 210 349Q210 100 380 100Q425 100 466 118T539
170Q562 159 576 140T590 99Q590 70 562 45T485 5T382 -10Q223 -10 138 83Z" />
<glyph unicode="D" glyph-name="D" horiz-adv-x="682" d="M409 700T486 658T604 538T645 350Q645 245 603 166T483 43T303 0H66V700H303Q409 700 486 658ZM383 106T437 169T491 349Q491 594 283 594H220V106H283Q383 106 437 169Z" />
<glyph unicode="E" glyph-name="E" horiz-adv-x="560" d="M515 106Q515 45 504 23T463 0H66V700H504V594H220V414H456V308H220V106H515Z" />
<glyph unicode="F" glyph-name="F" horiz-adv-x="530" d="M220 594V409H455V303H220V0H66V700H498V594H220Z" />
<glyph unicode="G" glyph-name="G" horiz-adv-x="686" d="M634 384V73Q544 -10 382 -10Q219 -10 136 81T52 350Q52 458 94 539T213 665T392 710Q468 710 529 692T631 637Q623 606 601 577T563 548Q556 548 551 550T535 558Q501 580 466 590T390 600Q302 600 256
536T210 350Q210 100 380 100Q452 100 482 122V278H421Q390 278 377 301T364 384H634Z" />
<glyph unicode="H" glyph-name="H" horiz-adv-x="700" d="M634 700V0H480V300H220V0H66V700H220V410H480V700H634Z" />
<glyph unicode="I" glyph-name="I" horiz-adv-x="350" d="M98 700H252V0H98V700Z" />
<glyph unicode="J" glyph-name="J" horiz-adv-x="447" d="M125 -10T78 -2T14 17Q14 73 24 93T51 114Q59 114 69 112T85 109Q121 100 149 100Q190 100 211 124T233 193V700H387V193Q387 134 359 88T281 16T167 -10Q125 -10 78 -2Z" />
<glyph unicode="K" glyph-name="K" horiz-adv-x="670" d="M655 5Q628 -10 555 -10Q499 -10 480 22L348 238Q330 268 319 280T293 296T251 300H244V0H90V700H244V402H289L484 700H647L418 365Q459 336 492 279L655 5Z" />
<glyph unicode="L" glyph-name="L" horiz-adv-x="513" d="M498 106V0H86V700H240V106H498Z" />
<glyph unicode="M" glyph-name="M" horiz-adv-x="846" d="M753 537T775 378T796 0H640V40Q640 214 632 322T603 540Q562 424 537 337T481 110H359Q331 248 308 335T243 538Q222 426 214 312T202 0H50Q53 222 74 381T145 700H317Q365 570 385 505T419 363Q437 439
458 505T529 700H701Q753 537 775 378Z" />
<glyph unicode="N" glyph-name="N" horiz-adv-x="700" d="M630 106T632 64Q634 36 634 27Q634 0 608 0H478V34Q478 84 439 145L218 485V0H66V700H204Q217 700 225 697T242 680L478 321V700H630V137Q630 106 632 64Z" />
<glyph unicode="O" glyph-name="O" horiz-adv-x="680" d="M197 -10T118 85T38 354Q38 523 117 616T340 710Q483 710 562 617T642 354Q642 181 563 86T340 -10Q197 -10 118 85ZM415 100T449 160T484 354Q484 484 450 542T340 600Q264 600 230 542T196 354Q196 221
230 161T340 100Q415 100 449 160Z" />
<glyph unicode="P" glyph-name="P" horiz-adv-x="615" d="M430 700T501 642T572 472Q572 357 500 294T294 231H230V0H76V700H294Q430 700 501 642ZM354 345T385 375T416 472Q416 538 385 567T284 596H230V345H284Q354 345 385 375Z" />
<glyph unicode="Q" glyph-name="Q" horiz-adv-x="680" d="M523 11T584 -51Q560 -92 500 -92Q469 -92 448 -83T410 -53Q396 -38 378 -8Q354 -10 340 -10Q197 -10 118 85T38 354Q38 523 117 616T340 710Q483 710 562 617T642 354Q642 239 606 157T503 33Q523 11
584 -51ZM196 233T224 172T315 102L274 179H394Q411 149 425 129Q484 184 484 354Q484 484 450 542T340 600Q264 600 230 542T196 354Q196 233 224 172Z" />
<glyph unicode="R" glyph-name="R" horiz-adv-x="640" d="M615 13Q605 4 580 -2T528 -8Q494 -8 476 1T448 32L374 198Q357 235 338 248T282 261H230V0H76V700H314Q448 700 520 643T592 480Q592 415 561 369T469 298Q496 270 514 230L615 13ZM304 369Q374 369 405
395T436 480Q436 539 405 565T304 592H230V369H304Z" />
<glyph unicode="S" glyph-name="S" horiz-adv-x="642" d="M209 -10T139 32T69 147Q69 182 98 202T182 223Q188 164 227 132T334 100Q457 100 457 191Q457 227 424 250T307 297Q189 330 134 381T79 514Q79 605 149 657T342 710Q440 710 510 664T606 534Q589 517
559 504T506 491Q488 491 478 498T457 527Q437 566 411 583T342 600Q235 600 235 529Q235 501 246 484T284 452T366 419Q466 386 519 359T593 299T615 220Q615 152 580 100T480 19T332 -10Q209 -10 139 32Z" />
<glyph unicode="T" glyph-name="T" horiz-adv-x="534" d="M523 676T523 656Q523 622 512 606T477 590H343V0H191V590H15V700H519Q523 676 523 656Z" />
<glyph unicode="U" glyph-name="U" horiz-adv-x="711" d="M217 -10T147 55T76 251V700H230V229Q230 167 262 134T356 100Q481 100 481 229V700H635V251Q635 119 566 55T356 -10Q217 -10 147 55Z" />
<glyph unicode="V" glyph-name="V" horiz-adv-x="638" d="M618 700Q599 493 542 321T387 0H252Q155 147 98 318T20 700H178Q196 530 232 392T319 159Q370 254 406 392T460 700H618Z" />
<glyph unicode="W" glyph-name="W" horiz-adv-x="896" d="M881 700Q857 476 821 313T726 0H564Q517 140 494 228T453 419Q434 307 410 218T342 0H180Q119 147 81 309T15 700H167Q188 494 207 386T261 156Q302 281 326 382T390 700H512Q560 469 584 371T645 157Q679
276 696 384T733 700H881Z" />
<glyph unicode="X" glyph-name="X" horiz-adv-x="602" d="M441 0Q428 81 393 146T301 276Q245 212 210 147T161 0H4Q19 82 50 147T119 262T214 371Q134 457 87 529T19 700H174Q189 631 220 575T301 463Q350 519 381 575T428 700H583Q563 602 516 530T388 371Q444
312 482 263T552 148T598 0H441Z" />
<glyph unicode="Y" glyph-name="Y" horiz-adv-x="590" d="M580 700L371 294V0H219V294L10 700H168L296 430L423 700H580Z" />
<glyph unicode="Z" glyph-name="Z" horiz-adv-x="580" d="M538 100V0H44V100L366 600H42V700H530V596L214 100H538Z" />
<glyph unicode="[" glyph-name="bracketleft" horiz-adv-x="389" d="M72 852H315V762H222V-5H315V-95H72V852Z" />
<glyph unicode="\" glyph-name="backslash" horiz-adv-x="334" d="M260 -55L-30 811H74L364 -55H260Z" />
<glyph unicode="]" glyph-name="bracketright" horiz-adv-x="389" d="M74 -95V-5H167V762H74V852H317V-95H74Z" />
<glyph unicode="^" glyph-name="asciicircum" horiz-adv-x="657" d="M258 791H397L615 324H463L325 611L194 324H42L258 791Z" />
<glyph unicode="_" glyph-name="underscore" horiz-adv-x="684" d="M0 -102H684V-202H0V-102Z" />
<glyph unicode="`" glyph-name="grave" horiz-adv-x="243" d="M-44 773H119L180 622H74L-44 773Z" />
<glyph unicode="a" glyph-name="a" horiz-adv-x="568" d="M506 125T512 89T539 27Q518 12 485 3T425 -7Q400 -7 385 11T363 68Q336 26 299 8T203 -10Q130 -10 85 29T40 133Q40 223 115 267T358 321V373Q358 414 337 434T271 454Q239 454 208 442T130 398Q125 394
116 394Q98 394 78 418T41 481Q80 515 150 537T290 560Q394 560 450 512T506 373V207Q506 125 512 89ZM285 86T310 107T358 172V246Q275 243 233 219T190 149Q190 120 208 103T255 86Q285 86 310 107Z" />
<glyph unicode="b" glyph-name="b" horiz-adv-x="610" d="M415 560T465 525T542 425T570 274Q570 188 543 124T465 25T347 -10Q305 -10 267 10T206 64Q199 27 186 10T149 -7Q121 -7 90 2T30 27Q50 53 56 89T63 207V791H211V505Q241 534 273 547T348 560Q415 560
465 525ZM372 86T396 131T420 274Q420 466 312 466Q283 466 255 452T211 414V163Q252 86 322 86Q372 86 396 131Z" />
<glyph unicode="c" glyph-name="c" horiz-adv-x="577" d="M30 -10T30 278Q30 410 101 485T297 560Q395 560 458 512T533 380Q475 345 437 345Q421 345 411 355T393 387Q378 429 356 446T297 464Q241 464 211 416T180 278Q180 181 210 136T306 90Q351 90 377 120T416
218Q471 218 495 198T519 133Q519 95 490 62T411 10T306 -10Q30 -10 30 278Z" />
<glyph unicode="d" glyph-name="d" horiz-adv-x="598" d="M537 126T543 90T570 27Q542 11 511 2T451 -7Q428 -7 415 10T394 63Q371 27 335 9T253 -10Q147 -10 89 64T30 273Q30 360 61 425T149 525T282 560Q342 560 389 534V791H537V207Q537 126 543 90ZM348 86T389
163V436Q354 466 298 466Q242 466 211 416T180 273Q180 177 204 132T278 86Q348 86 389 163Z" />
<glyph unicode="e" glyph-name="e" horiz-adv-x="580" d="M550 297T545 248H191Q196 172 227 130T310 88Q333 88 348 94T380 115T424 166Q429 174 445 174Q462 174 486 163T539 130Q474 -10 310 -10Q184 -10 112 66T40 276Q40 363 72 427T165 525T309 560Q424
560 487 495T550 311Q550 297 545 248ZM400 332Q400 466 306 466Q258 466 229 432T193 332H400Z" />
<glyph unicode="f" glyph-name="f" horiz-adv-x="365" d="M262 694T248 673T233 613V550H337V458H233V0H85V458H2V550H85V614Q85 699 129 745T257 792Q314 792 348 774T383 725Q383 712 379 700T368 679Q334 694 289 694Q262 694 248 673Z" />
<glyph unicode="g" glyph-name="g" horiz-adv-x="585" d="M428 125T492 85T556 -31Q556 -112 484 -159T289 -207Q165 -207 98 -168T30 -55Q30 39 164 52V55Q123 63 101 83T78 133Q78 160 100 180T159 211Q110 236 81 276T52 364Q52 458 116 509T298 560Q357 560
406 540Q429 571 460 590T520 609Q556 609 570 584T585 495Q517 495 486 479Q520 434 520 376Q520 284 458 234T279 184Q232 184 215 178T198 153Q198 140 206 135T236 127T309 125Q428 125 492 85ZM202 466T202 372Q202 325 222 303T285 280Q328 280 348 302T369
372Q369 420 349 443T285 466Q202 466 202 372ZM350 -111T382 -92T415 -37Q415 33 293 33Q181 33 181 -37Q181 -76 206 -93T289 -111Q350 -111 382 -92Z" />
<glyph unicode="h" glyph-name="h" horiz-adv-x="630" d="M465 560T507 516T549 396V0H401V379Q401 419 386 436T337 454Q270 454 199 396V0H51V791H199V483Q237 518 289 539T393 560Q465 560 507 516Z" />
<glyph unicode="i" glyph-name="i" horiz-adv-x="288" d="M70 550H218V0H70V550ZM315 651T315 729V744Q315 822 393 822H407Q485 822 485 744V729Q485 651 407 651H393Q315 651 315 729Z" />
<glyph unicode="j" glyph-name="j" horiz-adv-x="270" d="M-5 -212T-34 -205T-76 -185Q-84 -177 -84 -164Q-84 -152 -78 -139T-65 -122Q-53 -128 -40 -131T-3 -134Q27 -134 43 -116T60 -62V550H208V-53Q208 -124 163 -168T34 -212Q-5 -212 -34 -205ZM305 651T305
729V744Q305 822 383 822H397Q475 822 475 744V729Q475 651 397 651H383Q305 651 305 729Z" />
<glyph unicode="k" glyph-name="k" horiz-adv-x="617" d="M608 0Q595 0 535 -3Q507 -5 498 -5Q471 -5 455 5T427 35L349 176Q334 204 313 215T245 224L219 222V0H71V791H219V324L241 325Q278 327 296 339T331 386L411 550H575L465 353Q449 325 437 309T402 281Q432
273 449 259T481 219L608 0Z" />
<glyph unicode="l" glyph-name="l" horiz-adv-x="268" d="M60 791H208V0H60V791Z" />
<glyph unicode="m" glyph-name="m" horiz-adv-x="912" d="M750 560T795 514T841 385V0H692V382Q692 431 679 448T627 466Q570 466 531 416V404V0H383V392Q383 434 372 450T329 466Q275 466 220 401V0H72V353Q72 495 60 528Q79 539 108 546T161 554Q188 554 201
539T219 486Q255 525 294 542T381 560Q427 560 461 542T513 488Q569 560 671 560Q750 560 795 514Z" />
<glyph unicode="n" glyph-name="n" horiz-adv-x="610" d="M540 88T544 63T559 17Q500 -5 437 -5Q412 -5 402 19T392 102V363Q392 415 377 435T322 456Q270 456 208 405V0H60V370Q60 437 58 473T48 531Q122 554 169 554Q190 554 199 541T208 496V484Q259 527 294
543T369 560Q455 560 497 514T540 372V138Q540 88 544 63Z" />
<glyph unicode="o" glyph-name="o" horiz-adv-x="568" d="M163 -10T97 65T30 276Q30 412 96 486T284 560Q405 560 471 486T538 276Q538 140 472 65T284 -10Q163 -10 97 65ZM339 86T363 131T388 276Q388 375 364 419T284 464Q229 464 205 420T180 276Q180 176 204
131T284 86Q339 86 363 131Z" />
<glyph unicode="p" glyph-name="p" horiz-adv-x="598" d="M460 560T515 491T570 286Q570 198 538 131T448 27T314 -10Q272 -10 211 7V-228H63V340Q63 421 57 457T30 520Q58 536 89 545T149 554Q170 554 183 540T203 497Q263 560 353 560Q460 560 515 491ZM355
86T387 137T420 286Q420 379 396 422T320 466Q288 466 258 451T211 414V401V104Q252 86 293 86Q355 86 387 137Z" />
<glyph unicode="q" glyph-name="q" horiz-adv-x="608" d="M479 554T510 545T570 520Q550 494 544 458T537 340V-228H389V41Q363 17 328 4T253 -10Q147 -10 89 64T30 273Q30 359 57 424T135 524T252 560Q306 560 343 545T398 501Q405 529 418 541T451 554Q479 554
510 545ZM344 86T389 144V401V412Q354 466 288 466Q180 466 180 273Q180 177 204 132T278 86Q344 86 389 144Z" />
<glyph unicode="r" glyph-name="r" horiz-adv-x="440" d="M384 557T406 537T428 471Q428 454 424 438T411 412Q399 419 384 422T341 425Q276 425 245 385T213 263V0H65V550H213V477Q233 516 265 536T336 557Q384 557 406 537Z" />
<glyph unicode="s" glyph-name="s" horiz-adv-x="505" d="M147 -10T91 20T34 97Q34 125 53 144T110 166Q131 126 164 106T249 86Q337 86 337 152Q337 179 312 193T230 226Q172 245 135 263T70 315T43 405Q43 452 72 487T150 541T256 560Q329 560 384 532T470 457Q457
432 435 414T394 395Q384 395 377 398T363 410Q318 466 260 466Q222 466 202 452T181 408Q181 377 208 361T295 328Q351 313 387 297T449 248T475 162Q475 79 416 35T245 -10Q147 -10 91 20Z" />
<glyph unicode="t" glyph-name="t" horiz-adv-x="405" d="M383 94T389 84T395 60Q395 39 382 26Q366 10 330 0T249 -10Q180 -10 138 28T96 131V456H12V550H96V700H244V550H348V456H244V144Q244 109 255 95T296 80Q328 80 372 97Q383 94 389 84Z" />
<glyph unicode="u" glyph-name="u" horiz-adv-x="630" d="M557 87T560 61T572 17Q552 7 524 1T471 -5Q442 -5 428 9T410 56Q381 24 340 7T249 -10Q162 -10 116 37T70 175V550H218V182Q218 129 234 107T291 84Q362 84 408 156V550H557V133Q557 87 560 61Z" />
<glyph unicode="v" glyph-name="v" horiz-adv-x="580" d="M558 550Q546 390 500 254T364 0H224Q132 118 84 254T22 550H177Q181 434 208 332T296 131Q353 229 377 331T403 550H558Z" />
<glyph unicode="w" glyph-name="w" horiz-adv-x="800" d="M780 550Q773 396 739 260T633 0H528Q446 132 408 289Q368 130 286 0H181Q107 123 69 259T20 550H170Q180 419 194 332T246 162Q325 337 346 550H472Q495 334 576 159Q601 217 614 282T632 403T640 550H780Z" />
<glyph unicode="x" glyph-name="x" horiz-adv-x="520" d="M366 0Q362 56 335 106T260 208Q213 156 186 106T154 0H16Q21 81 64 148T182 289Q131 340 99 377T45 458T18 550H156Q157 504 184 461T260 367Q309 417 336 460T364 550H502Q498 502 476 459T421 378T338
289Q412 216 455 149T504 0H366Z" />
<glyph unicode="y" glyph-name="y" horiz-adv-x="535" d="M539 550L326 -42Q292 -136 245 -175T118 -214Q68 -214 37 -194T6 -142Q6 -125 12 -112T33 -80Q58 -97 94 -97Q132 -97 153 -75T195 9L-1 550H151L270 182L387 550H539Z" />
<glyph unicode="z" glyph-name="z" horiz-adv-x="520" d="M490 98V0H30V88L319 452H56V550H482V463L184 98H490Z" />
<glyph unicode="{" glyph-name="braceleft" horiz-adv-x="364" d="M173 -111T139 -75T104 25V238Q104 275 87 297T28 327V384Q70 391 87 413T104 474V687Q104 749 138 785T240 822H338V732H313Q249 732 249 660V474Q249 422 227 395T163 357V354Q249 335 249 238V52Q249
-20 313 -20H338V-111H240Q173 -111 139 -75Z" />
<glyph unicode="|" glyph-name="bar" horiz-adv-x="283" d="M72 802H211V-12H72V802Z" />
<glyph unicode="}" glyph-name="braceright" horiz-adv-x="364" d="M26 -111V-20H51Q115 -20 115 52V238Q115 335 201 354V357Q160 368 138 395T115 474V660Q115 732 51 732H26V822H124Q191 822 225 786T260 687V474Q260 436 277 414T336 384V327Q294 320 277
298T260 238V25Q260 -38 226 -74T124 -111H26Z" />
<glyph unicode="~" glyph-name="asciitilde" horiz-adv-x="600" d="M50 275Q68 314 105 335T192 356Q223 356 248 348T307 323Q334 309 354 302T396 295Q433 295 453 310T493 360L555 308Q533 266 496 241T403 216Q367 216 342 224T283 250Q254 264 238 270T199
276Q168 276 143 259T104 213L50 275Z" />
<glyph unicode="&#xa0;" glyph-name="uni00A0" horiz-adv-x="258" />
<glyph unicode="&#xa1;" glyph-name="exclamdown" horiz-adv-x="243" d="M208 566T208 488V473Q208 395 130 395H116Q38 395 38 473V488Q38 566 116 566H130Q208 566 208 488ZM206 -140H40L75 334H171L206 -140Z" />
<glyph unicode="&#xa2;" glyph-name="cent" horiz-adv-x="547" d="M471 218T495 198T519 133Q519 95 490 62T411 10T306 -10Q252 -10 212 0L186 -80H126L159 19Q30 81 30 278Q30 410 101 485T297 560Q311 560 337 558L364 638H423L393 546Q452 526 488 483T533
380Q475 345 437 345Q421 345 411 355T393 387Q379 427 359 444L246 103Q271 90 306 90Q351 90 377 120T416 218Q471 218 495 198ZM180 195T202 150L306 464H297Q241 464 211 416T180 278Q180 195 202 150Z" />
<glyph unicode="&#xa3;" glyph-name="sterling" horiz-adv-x="609" d="M580 148T557 100T482 21T354 -10Q299 -10 259 0T187 32Q117 -13 16 -10V99Q61 101 87 111T125 146T138 219Q138 258 124 317H14V395H105Q91 456 91 497Q91 563 122 611T206 684T325 710Q421
710 481 662T556 530Q545 519 517 506T471 493Q442 493 433 520Q417 568 393 590T324 612Q285 612 261 584T237 504Q237 458 251 395H374V317H270Q284 256 284 218Q284 159 260 112Q299 88 344 88Q453 88 456 213L578 201Q580 148 557 100Z" />
<glyph unicode="&#xa4;" glyph-name="currency" horiz-adv-x="609" d="M33 122L92 181Q33 248 33 353Q33 451 92 523L33 582L73 624L135 563Q171 593 214 608T304 624Q399 624 474 563L534 624L576 582L517 523Q576 451 576 353Q576 248 517 181L576 122L534 81L474
140Q397 81 304 81Q208 81 135 140L73 81L33 122ZM365 209T404 249T444 353Q444 416 405 456T304 497Q243 497 204 457T165 353Q165 290 204 250T304 209Q365 209 404 249Z" />
<glyph unicode="&#xa5;" glyph-name="yen" horiz-adv-x="590" d="M403 356H512V300H374L371 294V224H512V168H371V0H219V168H78V224H219V294L216 300H78V356H187L10 700H168L296 430L423 700H580L403 356Z" />
<glyph unicode="&#xa6;" glyph-name="brokenbar" horiz-adv-x="283" d="M72 802H211V495H72V802ZM72 295H211V-12H72V295Z" />
<glyph unicode="&#xa7;" glyph-name="section" horiz-adv-x="500" d="M330 357T261 383L148 425Q104 442 78 475T51 557Q51 626 105 666T245 707Q344 707 393 669T448 565L324 556Q319 587 303 603T245 619Q215 619 196 606T176 567Q176 542 192 528T244 500L366
454Q426 431 445 389T465 274H330Q330 357 261 383ZM161 -88T109 -49T51 54L175 63Q177 36 197 18T254 0Q285 0 304 17T323 58Q323 85 310 101T265 129L143 175Q80 199 58 237T35 345H170Q170 306 192 280T258 236L361 194Q415 172 436 143T458 62Q458 -9 405 -48T254
-88Q161 -88 109 -49Z" />
<glyph unicode="&#xa8;" glyph-name="dieresis" horiz-adv-x="342" d="M0 640T0 705V718Q0 783 65 783H77Q142 783 142 718V705Q142 640 77 640H65Q0 640 0 705ZM200 640T200 705V718Q200 783 265 783H277Q342 783 342 718V705Q342 640 277 640H265Q200 640 200 705Z" />
<glyph unicode="&#xa9;" glyph-name="copyright" horiz-adv-x="774" d="M283 -10T201 36T73 164T27 350Q27 454 73 536T201 664T387 710Q491 710 573 664T701 536T747 350Q747 246 701 164T573 36T387 -10Q283 -10 201 36ZM474 39T543 78T651 189T690 350Q690
440 651 511T543 621T387 661Q300 661 231 622T124 511T85 350Q85 260 123 189T231 79T387 39Q474 39 543 78ZM291 132T236 190T181 351Q181 452 234 509T395 567Q485 567 534 525T587 412L487 393Q482 437 462 457T396 478Q345 478 322 450T298 351Q298 221 399
221Q437 221 457 237T484 290L584 271Q577 210 529 171T399 132Q291 132 236 190Z" />
<glyph unicode="&#xaa;" glyph-name="ordfeminine" horiz-adv-x="380" d="M353 393T366 380Q335 360 291 360Q248 360 240 399Q205 359 135 359Q86 359 56 385T26 456Q26 516 76 542T238 571V584Q238 637 187 637Q170 637 155 632T130 621T116 614Q109 610 98
604T79 598Q67 598 54 619T34 665Q125 712 203 712Q274 712 313 682T353 593V446Q353 393 366 380ZM213 433T238 460V509Q185 508 163 497T141 468Q141 452 150 443T177 433Q213 433 238 460Z" />
<glyph unicode="&#xab;" glyph-name="guillemotleft" d="M255 288L383 452H525L406 288L525 117H383L255 288ZM40 288L168 452H310L191 288L310 117H168L40 288Z" />
<glyph unicode="&#xac;" glyph-name="logicalnot" horiz-adv-x="600" d="M398 287H50V387H540V97H398V287Z" />
<glyph unicode="&#xad;" glyph-name="uni00AD" horiz-adv-x="380" d="M40 347H340V267H40V347Z" />
<glyph unicode="&#xae;" glyph-name="registered" horiz-adv-x="774" d="M486 710T568 661T699 530T747 350Q747 253 699 171T569 39T387 -10Q289 -10 207 39T76 170T27 350Q27 447 75 529T206 661T387 710Q486 710 568 661ZM472 39T541 80T650 193T690 350Q690
436 651 507T542 619T387 661Q303 661 234 620T125 507T85 350Q85 265 125 194T234 81T387 39Q472 39 541 80ZM576 370T556 340T501 294L573 145H451L391 277H352V145H235V543H418Q496 543 536 507T576 410Q576 370 556 340ZM352 364H411Q431 364 444 377T457 411Q457
431 446 443T415 456H352V364Z" />
<glyph unicode="&#xaf;" glyph-name="overscore" horiz-adv-x="243" d="M-42 744H284V644H-42V744Z" />
<glyph unicode="&#xb0;" glyph-name="degree" horiz-adv-x="438" d="M174 481T138 503T80 561T59 642Q59 685 80 722T137 780T219 802Q264 802 300 781T358 722T379 642Q379 598 358 562T301 503T219 481Q174 481 138 503ZM259 548T284 574T309 642Q309 682 284
708T219 735Q179 735 154 709T128 642Q128 601 153 575T219 548Q259 548 284 574Z" />
<glyph unicode="&#xb1;" glyph-name="plusminus" horiz-adv-x="600" d="M260 338H40V417H260V629H341V417H560V338H341V125H260V338ZM40 79H560V0H40V79Z" />
<glyph unicode="&#xb2;" glyph-name="uni00B2" horiz-adv-x="377" d="M355 513T317 465T213 372H350V282H32V346Q101 389 139 418T204 485T231 570Q231 594 215 607T175 620Q148 620 134 599T120 539Q73 539 51 553T28 604Q28 630 46 654T100 694T183 710Q263
710 309 676T355 575Q355 513 317 465Z" />
<glyph unicode="&#xb3;" glyph-name="uni00B3" horiz-adv-x="380" d="M360 486T360 410Q360 350 316 314T174 278Q97 278 56 297T15 348Q15 368 27 380T55 393Q73 378 102 369T172 359Q245 359 245 415Q245 443 233 454T193 465L135 463Q124 463 113 487T101 525Q101
542 117 542H180Q231 542 231 592Q231 611 218 623T183 635Q155 635 130 621T83 585Q59 585 46 597T33 632Q33 669 77 689T185 710Q260 710 302 679T345 598Q345 530 292 507Q360 486 360 410Z" />
<glyph unicode="&#xb4;" glyph-name="acute" horiz-adv-x="243" d="M134 773H299L188 622H62L134 773Z" />
<glyph unicode="&#xb6;" glyph-name="paragraph" horiz-adv-x="580" d="M186 328Q143 333 105 361T43 434T20 535Q20 638 84 694T264 750H580V660H506V0H386V660H306V0H186V328Z" />
<glyph unicode="&#xb7;" glyph-name="middot" horiz-adv-x="308" d="M70 232T70 310V325Q70 403 148 403H162Q240 403 240 325V310Q240 232 162 232H148Q70 232 70 310Z" />
<glyph unicode="&#xb8;" glyph-name="cedilla" horiz-adv-x="253" d="M193 -51T221 -74T250 -136Q250 -239 109 -239Q5 -239 5 -185Q5 -172 9 -163Q21 -168 44 -171T93 -174Q124 -174 135 -166T147 -138Q147 -127 139 -120T114 -112Q100 -112 86 -117L49 -75L96
0H184L136 -51H148Q193 -51 221 -74Z" />
<glyph unicode="&#xb9;" glyph-name="uni00B9" horiz-adv-x="379" d="M332 370V282H36V370H126V602Q86 566 54 566Q-11 566 -11 645Q23 648 70 667T139 710H248V370H332Z" />
<glyph unicode="&#xba;" glyph-name="ordmasculine" horiz-adv-x="380" d="M106 357T61 405T16 533Q16 613 61 661T191 710Q275 710 319 662T364 533Q364 454 320 406T191 357Q106 357 61 405ZM222 432T235 455T248 533Q248 588 235 611T191 635Q159 635 146 612T132
533Q132 478 145 455T191 432Q222 432 235 455Z" />
<glyph unicode="&#xbb;" glyph-name="guillemotright" d="M45 117L164 288L45 452H187L315 288L187 117H45ZM260 117L379 288L260 452H402L530 288L402 117H260Z" />
<glyph unicode="&#xbc;" glyph-name="onequarter" horiz-adv-x="976" d="M332 370V282H36V370H126V602Q86 566 54 566Q-11 566 -11 645Q23 648 70 667T139 710H248V370H332ZM612 700H724L396 0H284L612 700ZM965 78H925V0H803V78H602V132Q665 210 691 272T717
423Q745 425 754 425Q798 425 817 411T837 362Q837 305 808 253T734 156H803V225H925V156H965V78Z" />
<glyph unicode="&#xbd;" glyph-name="onehalf" horiz-adv-x="966" d="M332 370V282H36V370H126V602Q86 566 54 566Q-11 566 -11 645Q23 648 70 667T139 710H248V370H332ZM612 700H724L396 0H284L612 700ZM944 232T906 184T802 91H939V1H621V65Q690 108 728 137T793
204T820 289Q820 313 804 326T764 339Q737 339 723 318T709 258Q662 258 640 272T617 323Q617 349 635 373T689 413T772 429Q852 429 898 395T944 294Q944 232 906 184Z" />
<glyph unicode="&#xbe;" glyph-name="threequarters" horiz-adv-x="967" d="M360 486T360 410Q360 350 316 314T174 278Q97 278 56 297T15 348Q15 368 27 380T55 393Q73 378 102 369T172 359Q245 359 245 415Q245 443 233 454T193 465L135 463Q124 463 113 487T101
525Q101 542 117 542H180Q231 542 231 592Q231 611 218 623T183 635Q155 635 130 621T83 585Q59 585 46 597T33 632Q33 669 77 689T185 710Q260 710 302 679T345 598Q345 530 292 507Q360 486 360 410ZM613 700H725L397 0H285L613 700ZM956 78H916V0H794V78H593V132Q656
210 682 272T708 423Q736 425 745 425Q789 425 808 411T828 362Q828 305 799 253T725 156H794V225H916V156H956V78Z" />
<glyph unicode="&#xbf;" glyph-name="questiondown" horiz-adv-x="475" d="M340 558T340 480V465Q340 387 262 387H248Q170 387 170 465V480Q170 558 248 558H262Q340 558 340 480ZM320 303Q320 263 307 233T276 181T228 133Q194 102 178 80T161 26Q161 -15 180
-35T239 -55Q282 -55 300 -30T323 43L452 14Q450 -35 424 -74T348 -135T233 -157Q135 -157 75 -109T14 23Q14 69 27 100T60 149T112 191Q140 211 156 225T183 262T194 317V333H320V303Z" />
<glyph unicode="&#xc0;" glyph-name="Agrave" horiz-adv-x="660" d="M480 107T466 173H194Q180 107 165 0H15Q53 363 253 700H408Q607 365 645 0H495Q480 107 466 173ZM442 283Q400 448 330 586Q260 448 218 283H442ZM428 883H591L652 732H546L428 883Z" />
<glyph unicode="&#xc1;" glyph-name="Aacute" horiz-adv-x="660" d="M480 107T466 173H194Q180 107 165 0H15Q53 363 253 700H408Q607 365 645 0H495Q480 107 466 173ZM442 283Q400 448 330 586Q260 448 218 283H442ZM337 883H502L391 732H265L337 883Z" />
<glyph unicode="&#xc2;" glyph-name="Acircumflex" horiz-adv-x="660" d="M480 107T466 173H194Q180 107 165 0H15Q53 363 253 700H408Q607 365 645 0H495Q480 107 466 173ZM442 283Q400 448 330 586Q260 448 218 283H442ZM510 885H663L754 732H650L587 815L522
732H418L510 885Z" />
<glyph unicode="&#xc3;" glyph-name="Atilde" horiz-adv-x="660" d="M480 107T466 173H194Q180 107 165 0H15Q53 363 253 700H408Q607 365 645 0H495Q480 107 466 173ZM442 283Q400 448 330 586Q260 448 218 283H442ZM462 748T445 765T427 812Q427 848 451 868T514
888Q536 888 552 883T589 869Q604 862 615 858T639 854Q660 854 668 863T677 891Q714 891 730 878T747 831Q747 800 724 775T662 750Q639 750 623 755T584 769Q568 776 556 780T530 784Q511 784 502 774T493 748Q462 748 445 765Z" />
<glyph unicode="&#xc4;" glyph-name="Adieresis" horiz-adv-x="660" d="M480 107T466 173H194Q180 107 165 0H15Q53 363 253 700H408Q607 365 645 0H495Q480 107 466 173ZM442 283Q400 448 330 586Q260 448 218 283H442ZM160 750T160 815V828Q160 893 225 893H237Q302
893 302 828V815Q302 750 237 750H225Q160 750 160 815ZM360 750T360 815V828Q360 893 425 893H437Q502 893 502 828V815Q502 750 437 750H425Q360 750 360 815Z" />
<glyph unicode="&#xc5;" glyph-name="Aring" horiz-adv-x="660" d="M480 107T466 173H194Q180 107 165 0H15Q53 363 253 700H408Q607 365 645 0H495Q480 107 466 173ZM442 283Q400 448 330 586Q260 448 218 283H442ZM530 746T492 783T454 877Q454 934 492 971T586
1009Q622 1009 652 992T700 945T718 877Q718 820 680 783T586 746Q530 746 492 783ZM604 834T616 846T629 877Q629 896 617 908T586 920Q567 920 555 908T542 877Q542 859 554 847T586 834Q604 834 616 846Z" />
<glyph unicode="&#xc6;" glyph-name="AE" horiz-adv-x="970" d="M925 100Q925 45 912 23T853 0H475V206H223Q189 106 169 0H15Q57 210 144 388T390 700H920V600H620V403H877V303H620V100H925ZM475 306V600H466Q345 493 262 306H475Z" />
<glyph unicode="&#xc7;" glyph-name="Ccedilla" horiz-adv-x="636" d="M562 159T576 140T590 99Q590 60 540 30T418 -8L378 -51H390Q435 -51 463 -74T492 -136Q492 -239 351 -239Q247 -239 247 -185Q247 -172 251 -163Q263 -168 286 -171T335 -174Q366 -174 377
-166T389 -138Q389 -127 381 -120T356 -112Q342 -112 328 -117L291 -75L333 -8Q197 6 125 98T52 349Q52 462 91 543T205 667T382 710Q445 710 503 689T596 631Q591 599 571 571T534 543Q520 543 508 552Q474 578 445 589T380 600Q210 600 210 349Q210 100 380 100Q425
100 466 118T539 170Q562 159 576 140Z" />
<glyph unicode="&#xc8;" glyph-name="Egrave" horiz-adv-x="560" d="M515 106Q515 45 504 23T463 0H66V700H504V594H220V414H456V308H220V106H515ZM378 893H541L602 742H496L378 893Z" />
<glyph unicode="&#xc9;" glyph-name="Eacute" horiz-adv-x="560" d="M515 106Q515 45 504 23T463 0H66V700H504V594H220V414H456V308H220V106H515ZM287 893H452L341 742H215L287 893Z" />
<glyph unicode="&#xca;" glyph-name="Ecircumflex" horiz-adv-x="560" d="M515 106Q515 45 504 23T463 0H66V700H504V594H220V414H456V308H220V106H515ZM460 895H613L704 742H600L537 825L472 742H368L460 895Z" />
<glyph unicode="&#xcb;" glyph-name="Edieresis" horiz-adv-x="560" d="M515 106Q515 45 504 23T463 0H66V700H504V594H220V414H456V308H220V106H515ZM110 760T110 825V838Q110 903 175 903H187Q252 903 252 838V825Q252 760 187 760H175Q110 760 110 825ZM310
760T310 825V838Q310 903 375 903H387Q452 903 452 838V825Q452 760 387 760H375Q310 760 310 825Z" />
<glyph unicode="&#xcc;" glyph-name="Igrave" horiz-adv-x="350" d="M98 700H252V0H98V700ZM273 893H436L497 742H391L273 893Z" />
<glyph unicode="&#xcd;" glyph-name="Iacute" horiz-adv-x="350" d="M98 700H252V0H98V700ZM182 893H347L236 742H110L182 893Z" />
<glyph unicode="&#xce;" glyph-name="Icircumflex" horiz-adv-x="350" d="M98 700H252V0H98V700ZM355 895H508L599 742H495L432 825L367 742H263L355 895Z" />
<glyph unicode="&#xcf;" glyph-name="Idieresis" horiz-adv-x="350" d="M98 700H252V0H98V700ZM5 760T5 825V838Q5 903 70 903H82Q147 903 147 838V825Q147 760 82 760H70Q5 760 5 825ZM205 760T205 825V838Q205 903 270 903H282Q347 903 347 838V825Q347 760
282 760H270Q205 760 205 825Z" />
<glyph unicode="&#xd0;" glyph-name="Eth" horiz-adv-x="672" d="M409 700T486 658T604 538T645 350Q645 245 603 166T483 43T303 0H66V307H1V404H66V700H303Q409 700 486 658ZM383 106T437 169T491 349Q491 594 283 594H220V404H346V307H220V106H283Q383 106 437 169Z" />
<glyph unicode="&#xd1;" glyph-name="Ntilde" horiz-adv-x="700" d="M630 106T632 64Q634 36 634 27Q634 0 608 0H478V34Q478 84 439 145L218 485V0H66V700H204Q217 700 225 697T242 680L478 321V700H630V137Q630 106 632 64ZM481 748T464 765T446 812Q446 848
470 868T533 888Q555 888 571 883T608 869Q623 862 634 858T658 854Q679 854 687 863T696 891Q733 891 749 878T766 831Q766 800 743 775T681 750Q658 750 642 755T603 769Q587 776 575 780T549 784Q530 784 521 774T512 748Q481 748 464 765Z" />
<glyph unicode="&#xd2;" glyph-name="Ograve" horiz-adv-x="680" d="M197 -10T118 85T38 354Q38 523 117 616T340 710Q483 710 562 617T642 354Q642 181 563 86T340 -10Q197 -10 118 85ZM415 100T449 160T484 354Q484 484 450 542T340 600Q264 600 230 542T196
354Q196 221 230 161T340 100Q415 100 449 160ZM438 893H601L662 742H556L438 893Z" />
<glyph unicode="&#xd3;" glyph-name="Oacute" horiz-adv-x="680" d="M197 -10T118 85T38 354Q38 523 117 616T340 710Q483 710 562 617T642 354Q642 181 563 86T340 -10Q197 -10 118 85ZM415 100T449 160T484 354Q484 484 450 542T340 600Q264 600 230 542T196
354Q196 221 230 161T340 100Q415 100 449 160ZM347 893H512L401 742H275L347 893Z" />
<glyph unicode="&#xd4;" glyph-name="Ocircumflex" horiz-adv-x="680" d="M197 -10T118 85T38 354Q38 523 117 616T340 710Q483 710 562 617T642 354Q642 181 563 86T340 -10Q197 -10 118 85ZM415 100T449 160T484 354Q484 484 450 542T340 600Q264 600 230 542T196
354Q196 221 230 161T340 100Q415 100 449 160ZM520 895H673L764 742H660L597 825L532 742H428L520 895Z" />
<glyph unicode="&#xd5;" glyph-name="Otilde" horiz-adv-x="680" d="M197 -10T118 85T38 354Q38 523 117 616T340 710Q483 710 562 617T642 354Q642 181 563 86T340 -10Q197 -10 118 85ZM415 100T449 160T484 354Q484 484 450 542T340 600Q264 600 230 542T196
354Q196 221 230 161T340 100Q415 100 449 160ZM472 758T455 775T437 822Q437 858 461 878T524 898Q546 898 562 893T599 879Q614 872 625 868T649 864Q670 864 678 873T687 901Q724 901 740 888T757 841Q757 810 734 785T672 760Q649 760 633 765T594 779Q578
786 566 790T540 794Q521 794 512 784T503 758Q472 758 455 775Z" />
<glyph unicode="&#xd6;" glyph-name="Odieresis" horiz-adv-x="680" d="M197 -10T118 85T38 354Q38 523 117 616T340 710Q483 710 562 617T642 354Q642 181 563 86T340 -10Q197 -10 118 85ZM415 100T449 160T484 354Q484 484 450 542T340 600Q264 600 230 542T196
354Q196 221 230 161T340 100Q415 100 449 160ZM170 760T170 825V838Q170 903 235 903H247Q312 903 312 838V825Q312 760 247 760H235Q170 760 170 825ZM370 760T370 825V838Q370 903 435 903H447Q512 903 512 838V825Q512 760 447 760H435Q370 760 370 825Z" />
<glyph unicode="&#xd7;" glyph-name="multiply" horiz-adv-x="600" d="M95 176L243 324L95 472L152 529L300 381L448 529L505 472L357 324L505 176L448 119L300 267L152 119L95 176Z" />
<glyph unicode="&#xd8;" glyph-name="Oslash" horiz-adv-x="680" d="M642 523T642 354Q642 181 563 86T340 -10Q232 -10 158 47L125 0H53L115 88Q38 183 38 354Q38 523 117 616T340 710Q446 710 518 658L549 701H621L562 617Q642 523 642 354ZM196 272T209 220L443
552Q410 600 340 600Q264 600 230 542T196 354Q196 272 209 220ZM415 100T449 160T484 354Q484 437 471 489L234 154Q269 100 340 100Q415 100 449 160Z" />
<glyph unicode="&#xd9;" glyph-name="Ugrave" horiz-adv-x="711" d="M217 -10T147 55T76 251V700H230V229Q230 167 262 134T356 100Q481 100 481 229V700H635V251Q635 119 566 55T356 -10Q217 -10 147 55ZM452 893H615L676 742H570L452 893Z" />
<glyph unicode="&#xda;" glyph-name="Uacute" horiz-adv-x="711" d="M217 -10T147 55T76 251V700H230V229Q230 167 262 134T356 100Q481 100 481 229V700H635V251Q635 119 566 55T356 -10Q217 -10 147 55ZM361 893H526L415 742H289L361 893Z" />
<glyph unicode="&#xdb;" glyph-name="Ucircumflex" horiz-adv-x="711" d="M217 -10T147 55T76 251V700H230V229Q230 167 262 134T356 100Q481 100 481 229V700H635V251Q635 119 566 55T356 -10Q217 -10 147 55ZM534 895H687L778 742H674L611 825L546 742H442L534 895Z" />
<glyph unicode="&#xdc;" glyph-name="Udieresis" horiz-adv-x="711" d="M217 -10T147 55T76 251V700H230V229Q230 167 262 134T356 100Q481 100 481 229V700H635V251Q635 119 566 55T356 -10Q217 -10 147 55ZM184 760T184 825V838Q184 903 249 903H261Q326 903
326 838V825Q326 760 261 760H249Q184 760 184 825ZM384 760T384 825V838Q384 903 449 903H461Q526 903 526 838V825Q526 760 461 760H449Q384 760 384 825Z" />
<glyph unicode="&#xdd;" glyph-name="Yacute" horiz-adv-x="590" d="M580 700L371 294V0H219V294L10 700H168L296 430L423 700H580ZM302 883H467L356 732H230L302 883Z" />
<glyph unicode="&#xde;" glyph-name="Thorn" horiz-adv-x="641" d="M431 600T501 542T572 372Q572 258 501 195T294 131H226V0H76V700H226V600H294Q431 600 501 542ZM355 243T387 273T420 372Q420 439 389 463T284 488H226V243H284Q355 243 387 273Z" />
<glyph unicode="&#xdf;" glyph-name="germandbls" horiz-adv-x="637" d="M521 345T552 304T583 199Q583 96 525 41T372 -14Q223 -14 223 77Q223 94 232 107T254 123Q272 105 298 94T356 82Q404 82 431 111T458 191Q458 252 433 278T350 305Q342 305 322 303L298
302Q285 302 275 336T265 390Q265 399 272 399H321Q373 399 404 431T435 523Q435 571 408 604T321 637Q257 637 225 602T192 502V0H64V502Q64 573 98 625T191 704T323 731Q397 731 451 706T533 635T562 530Q562 469 537 425T465 359Q521 345 552 304Z" />
<glyph unicode="&#xe0;" glyph-name="agrave" horiz-adv-x="568" d="M506 125T512 89T539 27Q518 12 485 3T425 -7Q400 -7 385 11T363 68Q336 26 299 8T203 -10Q130 -10 85 29T40 133Q40 223 115 267T358 321V373Q358 414 337 434T271 454Q239 454 208 442T130
398Q125 394 116 394Q98 394 78 418T41 481Q80 515 150 537T290 560Q394 560 450 512T506 373V207Q506 125 512 89ZM285 86T310 107T358 172V246Q275 243 233 219T190 149Q190 120 208 103T255 86Q285 86 310 107ZM375 773H538L599 622H493L375 773Z" />
<glyph unicode="&#xe1;" glyph-name="aacute" horiz-adv-x="568" d="M506 125T512 89T539 27Q518 12 485 3T425 -7Q400 -7 385 11T363 68Q336 26 299 8T203 -10Q130 -10 85 29T40 133Q40 223 115 267T358 321V373Q358 414 337 434T271 454Q239 454 208 442T130
398Q125 394 116 394Q98 394 78 418T41 481Q80 515 150 537T290 560Q394 560 450 512T506 373V207Q506 125 512 89ZM285 86T310 107T358 172V246Q275 243 233 219T190 149Q190 120 208 103T255 86Q285 86 310 107ZM284 773H449L338 622H212L284 773Z" />
<glyph unicode="&#xe2;" glyph-name="acircumflex" horiz-adv-x="568" d="M506 125T512 89T539 27Q518 12 485 3T425 -7Q400 -7 385 11T363 68Q336 26 299 8T203 -10Q130 -10 85 29T40 133Q40 223 115 267T358 321V373Q358 414 337 434T271 454Q239 454 208 442T130
398Q125 394 116 394Q98 394 78 418T41 481Q80 515 150 537T290 560Q394 560 450 512T506 373V207Q506 125 512 89ZM285 86T310 107T358 172V246Q275 243 233 219T190 149Q190 120 208 103T255 86Q285 86 310 107ZM457 775H610L701 622H597L534 705L469 622H365L457
775Z" />
<glyph unicode="&#xe3;" glyph-name="atilde" horiz-adv-x="568" d="M506 125T512 89T539 27Q518 12 485 3T425 -7Q400 -7 385 11T363 68Q336 26 299 8T203 -10Q130 -10 85 29T40 133Q40 223 115 267T358 321V373Q358 414 337 434T271 454Q239 454 208 442T130
398Q125 394 116 394Q98 394 78 418T41 481Q80 515 150 537T290 560Q394 560 450 512T506 373V207Q506 125 512 89ZM285 86T310 107T358 172V246Q275 243 233 219T190 149Q190 120 208 103T255 86Q285 86 310 107ZM409 638T392 655T374 702Q374 738 398 758T461
778Q483 778 499 773T536 759Q551 752 562 748T586 744Q607 744 615 753T624 781Q661 781 677 768T694 721Q694 690 671 665T609 640Q586 640 570 645T531 659Q515 666 503 670T477 674Q458 674 449 664T440 638Q409 638 392 655Z" />
<glyph unicode="&#xe4;" glyph-name="adieresis" horiz-adv-x="568" d="M506 125T512 89T539 27Q518 12 485 3T425 -7Q400 -7 385 11T363 68Q336 26 299 8T203 -10Q130 -10 85 29T40 133Q40 223 115 267T358 321V373Q358 414 337 434T271 454Q239 454 208 442T130
398Q125 394 116 394Q98 394 78 418T41 481Q80 515 150 537T290 560Q394 560 450 512T506 373V207Q506 125 512 89ZM285 86T310 107T358 172V246Q275 243 233 219T190 149Q190 120 208 103T255 86Q285 86 310 107ZM107 640T107 705V718Q107 783 172 783H184Q249
783 249 718V705Q249 640 184 640H172Q107 640 107 705ZM307 640T307 705V718Q307 783 372 783H384Q449 783 449 718V705Q449 640 384 640H372Q307 640 307 705Z" />
<glyph unicode="&#xe5;" glyph-name="aring" horiz-adv-x="568" d="M506 125T512 89T539 27Q518 12 485 3T425 -7Q400 -7 385 11T363 68Q336 26 299 8T203 -10Q130 -10 85 29T40 133Q40 223 115 267T358 321V373Q358 414 337 434T271 454Q239 454 208 442T130
398Q125 394 116 394Q98 394 78 418T41 481Q80 515 150 537T290 560Q394 560 450 512T506 373V207Q506 125 512 89ZM285 86T310 107T358 172V246Q275 243 233 219T190 149Q190 120 208 103T255 86Q285 86 310 107ZM477 636T439 673T401 767Q401 824 439 861T533
899Q569 899 599 882T647 835T665 767Q665 710 627 673T533 636Q477 636 439 673ZM551 724T563 736T576 767Q576 786 564 798T533 810Q514 810 502 798T489 767Q489 749 501 737T533 724Q551 724 563 736Z" />
<glyph unicode="&#xe6;" glyph-name="ae" horiz-adv-x="890" d="M860 285T853 248H514Q522 86 620 86Q658 86 679 102T714 137T734 164Q742 173 755 173Q774 173 799 160T849 128Q784 -12 620 -12Q496 -12 428 65Q395 30 346 9T233 -12Q143 -12 92 25T40 132Q40
229 119 278T363 331V373Q363 412 343 433T284 454Q247 454 218 442T145 404L127 393Q119 389 114 389Q96 389 77 414T41 481Q87 514 152 537T290 560Q341 560 383 545T454 503Q523 560 629 560Q734 560 797 500T860 322Q860 285 853 248ZM710 332Q710 398 690
432T626 466Q530 466 516 332H710ZM296 84T327 107T374 176Q366 207 364 248Q190 243 190 148Q190 119 208 102T255 84Q296 84 327 107Z" />
<glyph unicode="&#xe7;" glyph-name="ccedilla" horiz-adv-x="577" d="M471 218T495 198T519 133Q519 84 472 45T356 -6L313 -51H325Q370 -51 398 -74T427 -136Q427 -239 286 -239Q182 -239 182 -185Q182 -172 186 -163Q198 -168 221 -171T270 -174Q301 -174 312
-166T324 -138Q324 -127 316 -120T291 -112Q277 -112 263 -117L226 -75L268 -9Q30 10 30 278Q30 410 101 485T297 560Q395 560 458 512T533 380Q475 345 437 345Q421 345 411 355T393 387Q378 429 356 446T297 464Q241 464 211 416T180 278Q180 181 210 136T306
90Q351 90 377 120T416 218Q471 218 495 198Z" />
<glyph unicode="&#xe8;" glyph-name="egrave" horiz-adv-x="580" d="M550 297T545 248H191Q196 172 227 130T310 88Q333 88 348 94T380 115T424 166Q429 174 445 174Q462 174 486 163T539 130Q474 -10 310 -10Q184 -10 112 66T40 276Q40 363 72 427T165 525T309
560Q424 560 487 495T550 311Q550 297 545 248ZM400 332Q400 466 306 466Q258 466 229 432T193 332H400ZM394 773H557L618 622H512L394 773Z" />
<glyph unicode="&#xe9;" glyph-name="eacute" horiz-adv-x="580" d="M550 297T545 248H191Q196 172 227 130T310 88Q333 88 348 94T380 115T424 166Q429 174 445 174Q462 174 486 163T539 130Q474 -10 310 -10Q184 -10 112 66T40 276Q40 363 72 427T165 525T309
560Q424 560 487 495T550 311Q550 297 545 248ZM400 332Q400 466 306 466Q258 466 229 432T193 332H400ZM303 773H468L357 622H231L303 773Z" />
<glyph unicode="&#xea;" glyph-name="ecircumflex" horiz-adv-x="580" d="M550 297T545 248H191Q196 172 227 130T310 88Q333 88 348 94T380 115T424 166Q429 174 445 174Q462 174 486 163T539 130Q474 -10 310 -10Q184 -10 112 66T40 276Q40 363 72 427T165 525T309
560Q424 560 487 495T550 311Q550 297 545 248ZM400 332Q400 466 306 466Q258 466 229 432T193 332H400ZM476 775H629L720 622H616L553 705L488 622H384L476 775Z" />
<glyph unicode="&#xeb;" glyph-name="edieresis" horiz-adv-x="580" d="M550 297T545 248H191Q196 172 227 130T310 88Q333 88 348 94T380 115T424 166Q429 174 445 174Q462 174 486 163T539 130Q474 -10 310 -10Q184 -10 112 66T40 276Q40 363 72 427T165 525T309
560Q424 560 487 495T550 311Q550 297 545 248ZM400 332Q400 466 306 466Q258 466 229 432T193 332H400ZM126 640T126 705V718Q126 783 191 783H203Q268 783 268 718V705Q268 640 203 640H191Q126 640 126 705ZM326 640T326 705V718Q326 783 391 783H403Q468 783
468 718V705Q468 640 403 640H391Q326 640 326 705Z" />
<glyph unicode="&#xec;" glyph-name="igrave" horiz-adv-x="288" d="M70 550H218V0H70V550ZM242 773H405L466 622H360L242 773Z" />
<glyph unicode="&#xed;" glyph-name="iacute" horiz-adv-x="288" d="M70 550H218V0H70V550ZM151 773H316L205 622H79L151 773Z" />
<glyph unicode="&#xee;" glyph-name="icircumflex" horiz-adv-x="288" d="M70 550H218V0H70V550ZM324 775H477L568 622H464L401 705L336 622H232L324 775Z" />
<glyph unicode="&#xef;" glyph-name="idieresis" horiz-adv-x="288" d="M70 550H218V0H70V550ZM-26 640T-26 705V718Q-26 783 39 783H51Q116 783 116 718V705Q116 640 51 640H39Q-26 640 -26 705ZM174 640T174 705V718Q174 783 239 783H251Q316 783 316 718V705Q316
640 251 640H239Q174 640 174 705Z" />
<glyph unicode="&#xf0;" glyph-name="eth" horiz-adv-x="607" d="M489 612T528 514T567 305Q567 144 503 66T304 -12Q174 -12 107 62T40 265Q40 344 69 406T158 504T304 540Q331 540 354 535Q331 572 298 614L223 565L179 626L245 669Q211 700 172 727L278 804Q319
778 359 745L436 795L479 733L415 691Q489 612 528 514ZM364 82T390 123T417 265Q417 360 390 403T304 446Q244 446 217 403T190 265Q190 165 216 124T304 82Q364 82 390 123Z" />
<glyph unicode="&#xf1;" glyph-name="ntilde" horiz-adv-x="610" d="M540 88T544 63T559 17Q500 -5 437 -5Q412 -5 402 19T392 102V363Q392 415 377 435T322 456Q270 456 208 405V0H60V370Q60 437 58 473T48 531Q122 554 169 554Q190 554 199 541T208 496V484Q259
527 294 543T369 560Q455 560 497 514T540 372V138Q540 88 544 63ZM437 638T420 655T402 702Q402 738 426 758T489 778Q511 778 527 773T564 759Q579 752 590 748T614 744Q635 744 643 753T652 781Q689 781 705 768T722 721Q722 690 699 665T637 640Q614 640 598
645T559 659Q543 666 531 670T505 674Q486 674 477 664T468 638Q437 638 420 655Z" />
<glyph unicode="&#xf2;" glyph-name="ograve" horiz-adv-x="568" d="M163 -10T97 65T30 276Q30 412 96 486T284 560Q405 560 471 486T538 276Q538 140 472 65T284 -10Q163 -10 97 65ZM339 86T363 131T388 276Q388 375 364 419T284 464Q229 464 205 420T180 276Q180
176 204 131T284 86Q339 86 363 131ZM382 773H545L606 622H500L382 773Z" />
<glyph unicode="&#xf3;" glyph-name="oacute" horiz-adv-x="568" d="M163 -10T97 65T30 276Q30 412 96 486T284 560Q405 560 471 486T538 276Q538 140 472 65T284 -10Q163 -10 97 65ZM339 86T363 131T388 276Q388 375 364 419T284 464Q229 464 205 420T180 276Q180
176 204 131T284 86Q339 86 363 131ZM291 773H456L345 622H219L291 773Z" />
<glyph unicode="&#xf4;" glyph-name="ocircumflex" horiz-adv-x="568" d="M163 -10T97 65T30 276Q30 412 96 486T284 560Q405 560 471 486T538 276Q538 140 472 65T284 -10Q163 -10 97 65ZM339 86T363 131T388 276Q388 375 364 419T284 464Q229 464 205 420T180
276Q180 176 204 131T284 86Q339 86 363 131ZM464 775H617L708 622H604L541 705L476 622H372L464 775Z" />
<glyph unicode="&#xf5;" glyph-name="otilde" horiz-adv-x="568" d="M163 -10T97 65T30 276Q30 412 96 486T284 560Q405 560 471 486T538 276Q538 140 472 65T284 -10Q163 -10 97 65ZM339 86T363 131T388 276Q388 375 364 419T284 464Q229 464 205 420T180 276Q180
176 204 131T284 86Q339 86 363 131ZM416 638T399 655T381 702Q381 738 405 758T468 778Q490 778 506 773T543 759Q558 752 569 748T593 744Q614 744 622 753T631 781Q668 781 684 768T701 721Q701 690 678 665T616 640Q593 640 577 645T538 659Q522 666 510 670T484
674Q465 674 456 664T447 638Q416 638 399 655Z" />
<glyph unicode="&#xf6;" glyph-name="odieresis" horiz-adv-x="568" d="M163 -10T97 65T30 276Q30 412 96 486T284 560Q405 560 471 486T538 276Q538 140 472 65T284 -10Q163 -10 97 65ZM339 86T363 131T388 276Q388 375 364 419T284 464Q229 464 205 420T180
276Q180 176 204 131T284 86Q339 86 363 131ZM114 640T114 705V718Q114 783 179 783H191Q256 783 256 718V705Q256 640 191 640H179Q114 640 114 705ZM314 640T314 705V718Q314 783 379 783H391Q456 783 456 718V705Q456 640 391 640H379Q314 640 314 705Z" />
<glyph unicode="&#xf7;" glyph-name="divide" horiz-adv-x="600" d="M261 452T243 470T225 516Q225 544 243 561T289 579Q318 579 336 562T354 516Q354 488 336 470T289 452Q261 452 243 470ZM70 364H530V284H70V364ZM261 73T243 90T225 136Q225 164 243 182T289
201Q318 201 336 183T354 136Q354 108 336 91T289 73Q261 73 243 90Z" />
<glyph unicode="&#xf8;" glyph-name="oslash" horiz-adv-x="568" d="M538 413T538 276Q538 140 472 65T284 -10Q198 -10 136 30L114 0H30L87 77Q30 151 30 276Q30 412 96 486T284 560Q361 560 418 529L434 550H518L471 486Q538 413 538 276ZM180 239T183 209L351
437Q327 464 284 464Q229 464 205 420T180 276Q180 239 183 209ZM339 86T363 131T388 276Q388 330 381 364L207 127Q232 86 284 86Q339 86 363 131Z" />
<glyph unicode="&#xf9;" glyph-name="ugrave" horiz-adv-x="630" d="M557 87T560 61T572 17Q552 7 524 1T471 -5Q442 -5 428 9T410 56Q381 24 340 7T249 -10Q162 -10 116 37T70 175V550H218V182Q218 129 234 107T291 84Q362 84 408 156V550H557V133Q557 87 560
61ZM413 773H576L637 622H531L413 773Z" />
<glyph unicode="&#xfa;" glyph-name="uacute" horiz-adv-x="630" d="M557 87T560 61T572 17Q552 7 524 1T471 -5Q442 -5 428 9T410 56Q381 24 340 7T249 -10Q162 -10 116 37T70 175V550H218V182Q218 129 234 107T291 84Q362 84 408 156V550H557V133Q557 87 560
61ZM322 773H487L376 622H250L322 773Z" />
<glyph unicode="&#xfb;" glyph-name="ucircumflex" horiz-adv-x="630" d="M557 87T560 61T572 17Q552 7 524 1T471 -5Q442 -5 428 9T410 56Q381 24 340 7T249 -10Q162 -10 116 37T70 175V550H218V182Q218 129 234 107T291 84Q362 84 408 156V550H557V133Q557 87
560 61ZM495 775H648L739 622H635L572 705L507 622H403L495 775Z" />
<glyph unicode="&#xfc;" glyph-name="udieresis" horiz-adv-x="630" d="M557 87T560 61T572 17Q552 7 524 1T471 -5Q442 -5 428 9T410 56Q381 24 340 7T249 -10Q162 -10 116 37T70 175V550H218V182Q218 129 234 107T291 84Q362 84 408 156V550H557V133Q557 87
560 61ZM145 640T145 705V718Q145 783 210 783H222Q287 783 287 718V705Q287 640 222 640H210Q145 640 145 705ZM345 640T345 705V718Q345 783 410 783H422Q487 783 487 718V705Q487 640 422 640H410Q345 640 345 705Z" />
<glyph unicode="&#xfd;" glyph-name="yacute" horiz-adv-x="535" d="M539 550L326 -42Q292 -136 245 -175T118 -214Q68 -214 37 -194T6 -142Q6 -125 12 -112T33 -80Q58 -97 94 -97Q132 -97 153 -75T195 9L-1 550H151L270 182L387 550H539ZM275 773H440L329 622H203L275
773Z" />
<glyph unicode="&#xfe;" glyph-name="thorn" horiz-adv-x="609" d="M452 560T511 491T570 272Q570 127 501 58T317 -12Q267 -12 211 11V-228H63V780H211V505Q236 530 268 545T348 560Q452 560 511 491ZM354 84T387 125T420 272Q420 377 395 421T322 466Q291 466
261 450T211 409V107Q252 84 292 84Q354 84 387 125Z" />
<glyph unicode="&#xff;" glyph-name="ydieresis" horiz-adv-x="535" d="M539 550L326 -42Q292 -136 245 -175T118 -214Q68 -214 37 -194T6 -142Q6 -125 12 -112T33 -80Q58 -97 94 -97Q132 -97 153 -75T195 9L-1 550H151L270 182L387 550H539ZM98 640T98 705V718Q98
783 163 783H175Q240 783 240 718V705Q240 640 175 640H163Q98 640 98 705ZM298 640T298 705V718Q298 783 363 783H375Q440 783 440 718V705Q440 640 375 640H363Q298 640 298 705Z" />
<glyph unicode="&#x2013;" glyph-name="endash" horiz-adv-x="623" d="M50 347H573V267H50V347Z" />
<glyph unicode="&#x2014;" glyph-name="emdash" horiz-adv-x="1100" d="M50 347H1050V267H50V347Z" />
<glyph unicode="&#x2018;" glyph-name="quoteleft" horiz-adv-x="243" d="M162 631T181 610T200 555V536Q200 502 180 481T127 460H106Q72 460 51 481T30 541V560Q30 606 42 640T84 718Q101 743 116 755T150 768Q178 768 198 750Q157 705 141 683T119 631H129Q162
631 181 610Z" />
<glyph unicode="&#x2019;" glyph-name="quoteright" horiz-adv-x="243" d="M178 824T199 803T220 743V724Q220 678 208 644T166 566Q149 541 134 529T100 516Q72 516 52 534Q93 579 109 601T131 653H121Q88 653 69 674T50 729V748Q50 782 70 803T123 824H144Q178
824 199 803Z" />
<glyph unicode="&#x201a;" glyph-name="quotesinglbase" horiz-adv-x="270" d="M178 165T199 144T220 84V65Q220 19 208 -15T166 -93Q149 -118 134 -130T100 -143Q72 -143 52 -125Q93 -80 109 -58T131 -6H121Q88 -6 69 15T50 70V89Q50 123 70 144T123 165H144Q178
165 199 144Z" />
<glyph unicode="&#x201c;" glyph-name="quotedblleft" horiz-adv-x="470" d="M182 631T201 610T220 555V536Q220 502 200 481T147 460H126Q92 460 71 481T50 541V560Q50 606 62 640T104 718Q121 743 136 755T170 768Q198 768 218 750Q177 705 161 683T139 631H149Q182
631 201 610ZM382 631T401 610T420 555V536Q420 502 400 481T347 460H326Q292 460 271 481T250 541V560Q250 606 262 640T304 718Q321 743 336 755T370 768Q398 768 418 750Q377 705 361 683T339 631H349Q382 631 401 610Z" />
<glyph unicode="&#x201d;" glyph-name="quotedblright" horiz-adv-x="470" d="M378 824T399 803T420 743V724Q420 678 408 644T366 566Q349 541 334 529T300 516Q272 516 252 534Q293 579 309 601T331 653H321Q288 653 269 674T250 729V748Q250 782 270 803T323
824H344Q378 824 399 803ZM178 824T199 803T220 743V724Q220 678 208 644T166 566Q149 541 134 529T100 516Q72 516 52 534Q93 579 109 601T131 653H121Q88 653 69 674T50 729V748Q50 782 70 803T123 824H144Q178 824 199 803Z" />
<glyph unicode="&#x201e;" glyph-name="quotedblbase" horiz-adv-x="470" d="M378 165T399 144T420 84V65Q420 19 408 -15T366 -93Q349 -118 334 -130T300 -143Q272 -143 252 -125Q293 -80 309 -58T331 -6H321Q288 -6 269 15T250 70V89Q250 123 270 144T323 165H344Q378
165 399 144ZM178 165T199 144T220 84V65Q220 19 208 -15T166 -93Q149 -118 134 -130T100 -143Q72 -143 52 -125Q93 -80 109 -58T131 -6H121Q88 -6 69 15T50 70V89Q50 123 70 144T123 165H144Q178 165 199 144Z" />
<glyph unicode="&#x2022;" glyph-name="bullet" horiz-adv-x="560" d="M228 197T187 220T123 284T100 377Q100 429 123 470T187 534T280 557Q332 557 373 534T437 470T460 377Q460 325 437 284T373 220T280 197Q228 197 187 220Z" />
<glyph unicode="&#x2039;" glyph-name="guilsinglleft" horiz-adv-x="340" d="M30 288L158 452H300L181 288L300 117H158L30 288Z" />
<glyph unicode="&#x203a;" glyph-name="guilsinglright" horiz-adv-x="340" d="M40 117L159 288L40 452H182L310 288L182 117H40Z" />
</font>
</defs>
</svg>
